HIERARCHY
ROOT root
{
	OFFSET 0.000000 0.000000 0.000000
	CHANNELS 6 Xposition Yposition Zposition Zrotation Yrotation Xrotation
	JOINT lhip
	{
		OFFSET 0.058581 -0.082280 -0.017664
		CHANNELS 3 Zrotation Yrotation Xrotation
		JOINT lknee
		{
			OFFSET 0.043451 -0.386469 0.008037
			CHANNELS 3 Zrotation Yrotation Xrotation
			JOINT lankle
			{
				OFFSET -0.014790 -0.426874 -0.037428
				CHANNELS 3 Zrotation Yrotation Xrotation
				JOINT ltoe
				{
					OFFSET 0.041054 -0.060286 0.122042
					CHANNELS 3 Zrotation Yrotation Xrotation
					End Site
					{
						OFFSET 0.000000 0.000000 0.000000
					}
				}
			}
		}
	}
	JOINT rhip
	{
		OFFSET -0.060310 -0.090513 -0.013543
		CHANNELS 3 Zrotation Yrotation Xrotation
		JOINT rknee
		{
			OFFSET -0.043257 -0.383688 -0.004843
			CHANNELS 3 Zrotation Yrotation Xrotation
			JOINT rankle
			{
				OFFSET 0.019056 -0.420046 -0.034562
				CHANNELS 3 Zrotation Yrotation Xrotation
				JOINT rtoe
				{
					OFFSET -0.034840 -0.062106 0.130323
					CHANNELS 3 Zrotation Yrotation Xrotation
					End Site
					{
						OFFSET 0.000000 0.000000 0.000000
					}
				}
			}
		}
	}
	JOINT lowerback
	{
		OFFSET 0.004439 0.124404 -0.038385
		CHANNELS 3 Zrotation Yrotation Xrotation
		JOINT upperback
		{
			OFFSET 0.004488 0.137956 0.026820
			CHANNELS 3 Zrotation Yrotation Xrotation
			JOINT chest
			{
				OFFSET -0.002265 0.056032 0.002855
				CHANNELS 3 Zrotation Yrotation Xrotation
				JOINT lowerneck
				{
					OFFSET -0.013390 0.211636 -0.033468
					CHANNELS 3 Zrotation Yrotation Xrotation
					JOINT upperneck
					{
						OFFSET 0.010113 0.088937 0.050410
						CHANNELS 3 Zrotation Yrotation Xrotation
						End Site
						{
							OFFSET 0.000000 0.000000 0.000000
						}
					}
				}
				JOINT lclavicle
				{
					OFFSET 0.071702 0.114000 -0.018898
					CHANNELS 3 Zrotation Yrotation Xrotation
					JOINT lshoulder
					{
						OFFSET 0.122921 0.045205 -0.019046
						CHANNELS 3 Zrotation Yrotation Xrotation
						JOINT lelbow
						{
							OFFSET 0.255332 -0.015649 -0.022946
							CHANNELS 3 Zrotation Yrotation Xrotation
							JOINT lwrist
							{
								OFFSET 0.265709 0.012698 -0.007375
								CHANNELS 3 Zrotation Yrotation Xrotation
								End Site
								{
									OFFSET 0.000000 0.000000 0.000000
								}
							}
						}
					}
				}
				JOINT rclavicle
				{
					OFFSET -0.082954 0.112472 -0.023707
					CHANNELS 3 Zrotation Yrotation Xrotation
					JOINT rshoulder
					{
						OFFSET -0.113228 0.046853 -0.008472
						CHANNELS 3 Zrotation Yrotation Xrotation
						JOINT relbow
						{
							OFFSET -0.260127 -0.014369 -0.031269
							CHANNELS 3 Zrotation Yrotation Xrotation
							JOINT rwrist
							{
								OFFSET -0.269108 0.006794 -0.006027
								CHANNELS 3 Zrotation Yrotation Xrotation
								End Site
								{
									OFFSET 0.000000 0.000000 0.000000
								}
							}
						}
					}
				}
			}
		}
	}
}
MOTION
Frames: 18
Frame Time: 0.033333
1.758713 0.739371 0.989439 -89.945247 2.823160 81.860755 2.272677 0.892948 11.432074 -1.479067 -15.914811 2.488859 4.794427 8.563236 -20.031564 0.000000 -0.000000 0.000000 1.371277 -4.688461 7.853252 2.470498 3.295247 8.130461 2.876749 -3.322571 -18.622340 0.000000 -0.000000 0.000000 -1.823031 2.456605 6.293817 0.494470 -1.663917 5.171913 1.963690 -0.784125 4.902748 2.936452 3.061578 -9.012564 2.298912 -1.667432 -2.366682 -25.896640 2.726200 -0.425158 -61.208178 -8.087600 6.339944 14.424879 -30.068976 -4.874695 2.452826 -2.268235 -14.451699 24.413107 0.554553 0.617214 60.105960 2.568141 11.420581 -14.322077 26.118429 -3.343558 5.737711 0.191784 -7.400875 
1.759176 0.739225 0.988319 -89.516373 3.153005 82.209560 2.655113 0.591502 10.749120 -1.675262 -15.904818 2.896016 4.759264 8.429410 -19.939669 0.000000 -0.000000 0.000000 1.699021 -4.661059 7.473703 2.603836 2.951728 8.038771 2.459459 -3.379521 -18.564118 0.000000 -0.000000 0.000000 -1.436278 2.169622 6.358980 0.519035 -1.829396 4.506007 1.865206 -0.938137 4.813551 2.937647 2.917641 -8.325076 2.534818 -1.517103 -2.573752 -25.443085 3.114657 0.025764 -61.643599 -7.474909 6.065254 14.343156 -28.426591 -4.151367 1.578694 -2.208644 -15.050992 24.249427 0.059908 0.911628 60.342949 2.044457 11.123763 -14.270807 25.149476 -2.950542 6.015530 0.207377 -8.193374 
1.759925 0.740351 0.987840 -89.333883 3.295820 82.334373 3.133475 0.657611 10.320437 -2.117147 -15.973065 3.348867 5.021755 8.275212 -19.990066 0.000000 -0.000000 0.000000 1.803085 -4.302870 7.374454 2.777501 3.741459 8.892754 2.466739 -3.441041 -15.706105 0.000000 -0.000000 0.000000 -1.331626 1.922130 6.189349 0.676469 -1.930080 4.422764 1.637124 -1.100039 4.950597 3.037790 3.009608 -7.955051 2.506829 -1.484276 -2.466113 -25.206121 3.037291 0.700339 -61.497249 -6.167749 6.636606 12.408075 -26.542771 0.615068 -0.271839 -2.675341 -12.895651 24.059976 -0.408374 1.096086 60.487936 2.034463 10.709078 -13.819968 23.922320 -2.625089 6.316924 0.463378 -8.702993 
1.757757 0.740374 0.987096 -89.529155 3.394937 81.907510 3.407467 1.327171 11.045929 -2.091281 -16.437826 3.116280 5.004125 8.236660 -20.039347 0.000000 -0.000000 0.000000 1.936246 -4.174490 7.963356 2.738707 4.061639 8.837029 2.514198 -3.653590 -15.796258 0.000000 -0.000000 0.000000 -1.331783 1.817381 5.927342 0.716929 -1.820234 4.799367 1.469467 -1.020667 5.358932 3.301672 3.108520 -7.645696 2.459073 -1.482677 -2.392371 -25.295023 3.113736 0.914740 -61.228259 -5.234298 6.818318 11.238556 -23.387057 3.810467 -1.569110 -2.742567 -10.674488 24.130583 -0.868008 1.090768 60.551936 1.732886 10.237199 -13.438141 22.604888 -2.513817 6.417977 0.484189 -8.838350 
1.757176 0.740107 0.987142 -89.092833 3.445955 81.679584 3.443457 1.252277 11.197015 -2.127624 -16.567126 3.256721 4.893601 8.179541 -20.126235 0.000000 -0.000000 0.000000 1.954973 -4.272060 8.333930 2.763042 3.929099 8.723298 2.449237 -3.830141 -15.756050 0.000000 -0.000000 0.000000 -1.381428 1.717581 6.028877 0.706285 -2.082040 4.962451 1.507748 -1.126991 5.323046 3.314520 3.215413 -7.094899 2.526186 -1.275984 -2.263603 -25.344554 3.268169 1.094541 -61.195600 -4.999867 6.435243 11.274568 -21.816275 3.321057 -1.779262 -2.910480 -11.018629 24.174697 -1.142091 1.188592 60.539673 1.608295 10.073028 -13.352973 21.884204 -2.464923 6.197192 0.474804 -8.847922 
1.758255 0.740193 0.986891 -89.211464 3.385740 81.808330 3.359533 1.416801 10.777461 -2.207406 -16.649285 3.716811 5.077536 8.209040 -20.225777 0.000000 -0.000000 0.000000 1.916716 -4.232192 7.847494 2.807944 4.233584 9.210507 2.323666 -4.012958 -15.837526 0.000000 -0.000000 0.000000 -1.477880 1.913077 6.075102 0.743085 -2.152575 4.717110 1.443153 -1.201787 5.465967 3.751345 3.263337 -7.150867 2.534277 -1.563536 -2.212314 -25.502214 3.268771 1.018595 -60.796564 -4.019998 6.897099 9.866987 -18.871727 6.882793 -2.931334 -2.709807 -8.440447 24.235783 -1.543974 1.000947 60.576026 1.326367 9.886912 -13.021287 20.957756 -2.058403 6.315456 0.229760 -8.701325 
1.758693 0.740177 0.986752 -89.071545 3.370640 81.819045 3.280753 1.326145 10.502607 -2.246606 -16.731035 4.180895 5.043564 8.342133 -20.294980 0.000000 -0.000000 0.000000 1.960974 -4.220822 7.667946 2.755960 4.183652 9.449208 2.305375 -4.129453 -15.918841 0.000000 -0.000000 0.000000 -1.602814 1.887900 6.303527 0.747396 -2.291898 4.426092 1.461316 -1.287451 5.352311 3.891951 3.270362 -6.544907 2.640883 -1.517150 -2.238257 -25.385470 3.837913 1.371048 -60.670122 -3.260858 6.694761 9.619490 -18.299878 6.878567 -2.912451 -2.230636 -8.243290 24.257315 -1.850093 1.148363 60.684428 0.939007 9.749730 -12.946819 20.230004 -2.167313 6.247487 0.228063 -8.914147 
1.758260 0.740185 0.986614 -88.840479 3.524766 81.476561 3.468390 1.433348 10.876828 -2.213635 -16.996315 4.191572 4.829225 8.239818 -20.344376 0.000000 -0.000000 0.000000 2.166994 -4.559696 8.012513 2.587834 4.332490 9.550863 2.225673 -4.183864 -16.073492 0.000000 -0.000000 0.000000 -1.587953 1.857959 6.613287 0.805999 -2.435821 4.608673 1.562573 -1.386088 5.353919 3.983030 3.396813 -6.767070 2.614754 -1.532288 -2.321455 -25.613390 4.046751 1.452464 -60.431744 -2.920297 6.363460 9.607105 -17.308745 6.810555 -3.240666 -2.286766 -8.122279 24.380188 -2.058521 1.064023 60.515291 0.623768 9.521791 -12.846780 19.902306 -2.349723 6.269751 0.285898 -8.946477 
1.758947 0.740080 0.986368 -88.925580 3.462833 81.466576 3.322977 1.287689 10.704044 -2.311447 -16.906831 4.560861 4.854296 8.432333 -20.495136 0.000000 -0.000000 0.000000 2.108861 -4.527092 7.765395 2.635810 4.480997 9.883503 2.236474 -4.266136 -16.208237 0.000000 -0.000000 0.000000 -1.626795 1.982385 6.584213 0.790764 -2.447913 4.693441 1.513864 -1.457454 5.457455 4.067552 3.393763 -6.873153 2.644433 -1.510139 -2.475570 -25.638141 4.223908 1.453972 -60.326362 -2.649011 6.267653 9.525803 -16.610554 6.834537 -3.165096 -2.253017 -8.089393 24.514714 -2.301378 1.013762 60.550784 0.639177 9.508740 -12.730438 19.523618 -2.324010 6.183116 0.168900 -8.930490 
1.759380 0.739904 0.986274 -88.991931 3.464170 81.581146 3.306977 1.389169 10.406687 -2.365699 -16.923718 4.855088 4.990785 8.479877 -20.643307 0.000000 -0.000000 0.000000 2.214155 -4.441324 7.466457 2.508873 4.374255 10.177590 2.173254 -4.256618 -16.338804 0.000000 -0.000000 0.000000 -1.719482 1.888980 6.308115 0.847718 -2.300539 4.819081 1.508144 -1.401561 5.645858 4.125737 3.441056 -7.099172 2.645527 -1.504985 -2.575669 -25.669749 4.770253 1.635890 -60.317632 -2.330773 6.120044 9.661876 -17.365385 6.716921 -3.290292 -1.774383 -8.030259 24.653777 -2.607652 0.929661 60.556204 0.381180 9.449858 -12.789461 19.713463 -2.546847 6.348518 0.165287 -9.019391 
1.760300 0.739566 0.986281 -88.902712 3.415406 81.506608 3.150222 1.224160 10.294065 -2.320582 -16.896012 5.095007 4.924105 8.436291 -20.564589 0.000000 -0.000000 0.000000 2.116985 -4.379993 7.420346 2.591847 4.265053 10.285975 2.154622 -4.246288 -16.325828 0.000000 -0.000000 0.000000 -1.804966 1.896735 6.467308 0.866542 -2.346094 4.846842 1.562055 -1.386450 5.697960 4.124834 3.529109 -7.263724 2.625029 -1.479679 -2.660182 -25.583313 4.997656 1.515106 -60.342571 -2.341221 6.171919 9.433185 -17.340495 6.979631 -3.444918 -2.293504 -8.320974 24.607803 -2.693533 0.849785 60.653278 0.319227 9.505544 -12.831470 19.785109 -2.587758 6.257169 0.298785 -9.265596 
1.760642 0.739146 0.986717 -88.948014 3.354136 81.340522 3.069050 1.221532 10.397917 -2.398780 -16.764304 5.160136 4.977348 8.494190 -20.679139 0.000000 -0.000000 0.000000 2.040341 -4.374660 7.446555 2.619075 4.386270 10.453385 2.199970 -4.238643 -16.321202 0.000000 -0.000000 0.000000 -1.907461 1.950334 6.640317 0.856153 -2.343986 4.885949 1.643451 -1.326776 5.707627 4.131917 3.568970 -7.540518 2.645621 -1.488925 -2.606621 -25.582910 4.980672 1.285811 -60.337759 -2.441981 6.144973 9.206364 -17.179669 6.823193 -3.012763 -2.321345 -8.330765 24.688942 -2.717351 0.706385 60.627739 0.250016 9.623160 -12.843769 20.031157 -2.505094 6.064616 0.273318 -9.122884 
1.761298 0.738811 0.986984 -89.011361 3.318969 81.298944 2.948465 1.333045 10.391486 -2.251070 -16.824024 5.162451 4.974562 8.498603 -20.675604 0.000000 -0.000000 0.000000 2.018869 -4.340955 7.394273 2.553641 4.317064 10.550980 2.300538 -4.101701 -16.348445 0.000000 -0.000000 0.000000 -1.938691 1.995354 6.726852 0.851898 -2.282083 4.833562 1.680661 -1.299462 5.730751 4.129489 3.714693 -7.653759 2.688696 -1.487586 -2.551219 -25.657397 4.988085 1.313207 -60.150209 -2.436242 6.241227 8.923626 -18.057694 6.877700 -2.775280 -2.309292 -8.191736 24.788982 -2.626465 0.719697 60.590684 0.325696 9.564192 -12.859679 20.286864 -2.844376 6.022917 0.420578 -9.253712 
1.762063 0.738631 0.987270 -89.010040 3.385680 81.278500 3.063331 1.377813 10.329286 -2.317916 -16.919085 5.219140 4.988052 8.433430 -20.678143 0.000000 -0.000000 0.000000 2.127994 -4.406484 7.358003 2.486663 4.359686 10.545304 2.362873 -4.080186 -16.391558 0.000000 -0.000000 0.000000 -1.914833 2.115130 6.664064 0.943082 -2.236330 4.967515 1.742378 -1.350573 5.791101 4.263715 3.752434 -8.019386 2.746706 -1.534582 -2.490729 -25.728027 4.818277 1.189258 -60.191136 -2.676821 6.329836 8.978237 -18.819652 6.642142 -2.701134 -2.403509 -8.282753 24.772717 -2.487574 0.617399 60.602103 0.435181 9.631679 -12.973970 20.621006 -2.903022 6.006603 0.436538 -9.105580 
1.762988 0.738616 0.987224 -88.883876 3.499977 81.346200 3.164127 1.127185 10.114998 -2.386546 -16.798392 5.348296 4.975094 8.454846 -20.663168 0.000000 -0.000000 0.000000 2.298572 -4.271661 7.246019 2.484844 4.193947 10.505827 2.252086 -4.217434 -16.327998 0.000000 -0.000000 0.000000 -1.764680 2.031819 6.719390 0.946237 -2.252233 4.909298 1.758904 -1.356662 5.640189 4.140356 3.773819 -7.805087 2.848997 -1.382790 -2.551577 -25.677960 4.673354 1.298023 -60.387268 -2.933107 6.356655 9.178291 -19.926917 6.295730 -2.820836 -2.303511 -8.825621 24.700263 -2.294048 0.760656 60.706196 0.579257 9.696987 -13.080230 21.191233 -2.823805 6.211957 0.350950 -9.179802 
1.763791 0.738517 0.987515 -88.837919 3.488753 81.339650 3.110993 0.982285 10.128509 -2.326568 -16.729106 5.229113 5.005564 8.447580 -20.587728 0.000000 -0.000000 0.000000 2.271888 -4.204988 7.265955 2.509802 4.056976 10.374691 2.212665 -4.308185 -16.146005 0.000000 -0.000000 0.000000 -1.772777 2.046497 6.732388 0.973624 -2.191658 4.966920 1.747678 -1.365884 5.717209 4.243803 3.783621 -8.106308 2.833823 -1.436545 -2.495480 -25.667183 4.578505 1.141594 -60.540350 -3.300096 6.602579 9.511453 -21.087368 6.295185 -2.758997 -2.523550 -9.053959 24.821114 -2.224443 0.595619 60.634124 0.823591 9.877515 -13.244133 21.819729 -2.871312 6.295622 0.406232 -9.107095 
1.764188 0.738150 0.987686 -88.826138 3.452740 81.284475 3.013098 0.986272 10.289575 -2.207433 -16.818631 5.017245 4.961002 8.497484 -20.479738 0.000000 -0.000000 0.000000 2.156580 -4.318746 7.325299 2.518550 4.046941 10.387408 2.299664 -4.147599 -16.255498 0.000000 -0.000000 0.000000 -1.716298 2.075521 6.822674 0.967960 -2.170178 5.033736 1.766312 -1.361456 5.607151 4.191791 3.787050 -8.108393 2.935219 -1.396855 -2.600728 -25.602495 4.432652 1.122553 -60.840157 -3.453549 6.732453 9.753596 -22.839442 6.143257 -2.625229 -2.278595 -9.266803 24.660713 -2.102488 0.567427 60.784236 0.886015 9.891987 -13.517291 22.752939 -2.848970 6.391991 0.543514 -8.973468 
1.765152 0.738051 0.987673 -88.713093 3.464075 81.369964 2.982308 0.790127 10.072835 -2.199401 -16.683970 5.092475 4.995942 8.372659 -20.390877 0.000000 -0.000000 0.000000 2.231765 -4.436783 7.208545 2.340851 4.074564 10.346567 2.225713 -4.233105 -16.167176 0.000000 -0.000000 0.000000 -1.691683 2.059351 6.779149 1.006095 -2.228018 5.126212 1.810861 -1.345195 5.560722 3.992422 3.903458 -8.074973 2.974358 -1.237230 -2.746879 -25.440582 4.271779 1.072134 -61.031965 -3.720306 6.973477 9.640609 -24.577226 6.346084 -2.336247 -2.262810 -9.598037 24.527045 -1.963784 0.575865 60.855191 1.044115 10.065665 -13.714054 23.935051 -2.680059 6.418241 0.575803 -8.940002 
